<svg width="240" height="180" viewBox="0 0 240 180" fill="none" xmlns="http://www.w3.org/2000/svg">
  <defs>
    <linearGradient id="leaf" x1="0" y1="0" x2="1" y2="1">
      <stop offset="0%" stop-color="#cfe1b5" />
      <stop offset="100%" stop-color="#9bb07a" />
    </linearGradient>
  </defs>
  <rect width="240" height="180" fill="none" />
  <path
    d="M112 40c-28 0-49 20-49 52 0 32 20 50 48 50 30 0 47-19 47-53 0-28-17-49-46-49Zm9 25c15 0 23 12 23 30 0 24-10 36-26 36-16 0-25-13-25-35 0-19 11-31 28-31Z"
    fill="#4b3a2c"
  />
  <path
    d="M150 88c10-6 19-7 30-3-5 13-12 22-22 27-12 6-22 5-33-2 5-9 13-17 25-22Z"
    fill="url(#leaf)"
  />
  <path
    d="M170 92c9-2 18 1 27 10-10 6-19 9-28 8-10-2-17-6-22-13 8-3 15-5 23-5Z"
    fill="url(#leaf)"
  />
  <text x="40" y="155" fill="#4b3a2c" font-family="'Dancing Script', 'Brush Script MT', cursive" font-size="32">Citrus Artisanat</text>
</svg>
